<svg width="61" height="56" viewBox="0 0 61 56" fill="none" xmlns="http://www.w3.org/2000/svg">
<path d="M56.0149 29.1019V1.77964C56.0149 0.804893 55.2247 0.0146484 54.2499 0.0146484H6.9621C5.98736 0.0146484 5.19711 0.804893 5.19711 1.77964V31.28C4.34568 31.404 3.51331 31.7346 2.77696 32.2812C0.455644 33.9273 -0.0933855 37.6109 1.85104 39.8827L9.80091 49.5204C14.7219 55.2798 19.9495 55.9854 27.7208 55.9854C34.3898 55.9854 37.3713 56.0148 43.1835 54.6905L48.8429 53.3369C49.7606 54.6184 51.2175 55.4485 52.8552 55.4485H55.6432C58.4133 55.4485 60.667 53.0744 60.667 50.1561V34.3784C60.6671 31.592 58.6119 29.3031 56.0149 29.1019ZM48.0817 32.7326L45.73 31.5382C41.8634 29.5865 37.3929 29.5142 33.4652 31.3403C32.3936 31.7618 30.0564 33.1759 28.8441 33.1286H20.6837C17.9769 33.1286 15.7747 35.3307 15.7747 38.0376V39.3247C15.7595 39.3087 15.7436 39.2936 15.7287 39.2773L9.90128 32.9519C9.54864 32.5692 9.15245 32.2489 8.72721 31.9919V14.481H23.1711V20.951C23.1711 21.9257 23.9613 22.7159 24.9361 22.7159H36.0732C37.048 22.7159 37.8382 21.9257 37.8382 20.951V14.481H52.4851V29.1018C50.4229 29.2611 48.7033 30.7364 48.0817 32.7326ZM26.7009 14.481H34.3081V19.186H26.7009V14.481ZM52.485 10.951H37.8382V3.54463H52.4851V10.951H52.485ZM34.3083 3.54463V10.9511H26.701V3.54463H34.3083ZM23.1709 3.54463V10.9511H8.72709V3.54463H23.1709ZM42.3643 51.2568C36.9952 52.4865 33.7616 52.4367 27.7842 52.4367C20.4889 52.4367 16.9639 52.3188 12.5242 47.274L4.57431 37.6363C3.1915 35.8357 5.69613 33.7101 7.3051 35.3435L13.1325 41.669C14.6726 43.2941 16.6107 44.1885 18.9994 44.2411H35.1559C36.1307 44.2411 36.9209 43.4508 36.9209 42.4761C36.9209 41.5013 36.1307 40.7111 35.1559 40.7111H19.3046V38.0373C19.3046 37.277 19.9231 36.6583 20.6836 36.6583H28.844C30.6824 36.79 33.3359 35.2549 34.9533 34.541C37.895 33.1733 41.2433 33.2274 44.1354 34.6872L47.8317 36.5646V49.9489L42.3643 51.2568ZM57.1371 50.156C57.1371 51.1278 56.467 51.9184 55.6433 51.9184H52.8554C52.0317 51.9184 51.3617 51.1278 51.3617 50.156V34.3784C51.3617 33.4066 52.0318 32.6159 52.8554 32.6159H55.6433C56.467 32.6159 57.1371 33.4065 57.1371 34.3784V50.156Z" fill="#242424"/>
</svg>
